<?xml version="1.0" standalone="no"?>
<!DOCTYPE svg PUBLIC "-//W3C//DTD SVG 20010904//EN"
 "http://www.w3.org/TR/2001/REC-SVG-20010904/DTD/svg10.dtd">
<svg version="1.0" xmlns="http://www.w3.org/2000/svg"
 width="615.000000pt" height="615.000000pt" viewBox="0 0 615.000000 615.000000"
 preserveAspectRatio="xMidYMid meet">
<metadata>
Created by potrace 1.14, written by Peter Selinger 2001-2017
</metadata>
<g transform="translate(0.000000,615.000000) scale(0.100000,-0.100000)"
fill="#000000" stroke="none">
<path d="M3073 6059 c-13 -5 -23 -13 -23 -19 0 -5 -6 -10 -14 -10 -17 0 -78
-31 -88 -45 -4 -5 -12 -10 -18 -10 -6 0 -15 -7 -20 -15 -5 -8 -10 -12 -10 -8
0 4 -24 -6 -52 -22 -29 -16 -71 -39 -93 -51 -22 -12 -58 -34 -80 -49 -22 -15
-45 -25 -50 -23 -6 1 -23 -8 -38 -22 -15 -15 -32 -23 -37 -20 -6 3 -10 1 -10
-5 0 -6 -13 -16 -30 -21 -16 -6 -30 -15 -30 -20 0 -4 -6 -6 -14 -3 -7 3 -16
-2 -19 -11 -6 -14 -43 -34 -76 -41 -7 -1 -23 -12 -35 -23 -12 -12 -30 -21 -39
-21 -9 0 -17 -4 -17 -10 0 -5 -7 -10 -15 -10 -22 0 -18 -18 5 -25 11 -3 27
-14 37 -23 9 -9 19 -18 22 -18 27 -7 51 -18 51 -24 0 -4 18 -15 40 -25 22 -10
40 -22 40 -27 0 -5 5 -6 11 -3 5 4 19 -3 30 -16 10 -12 19 -18 19 -14 0 4 9 0
20 -10 11 -10 20 -14 20 -9 1 5 10 -2 20 -15 11 -13 20 -21 20 -17 0 3 15 -3
33 -14 17 -11 54 -31 81 -46 27 -14 56 -32 64 -40 7 -8 20 -14 28 -14 8 0 14
-5 14 -11 0 -5 4 -7 10 -4 5 3 15 -3 21 -14 7 -10 19 -17 26 -14 7 3 13 0 13
-6 0 -6 7 -11 15 -11 9 0 18 -7 21 -15 4 -8 14 -15 24 -15 10 0 23 -7 30 -15
7 -8 20 -15 29 -15 10 0 27 -9 39 -20 21 -20 23 -20 49 -3 16 10 33 25 40 33
7 8 13 11 13 6 0 -5 7 -3 15 4 8 7 15 9 15 4 0 -5 4 -3 9 5 5 8 17 16 27 17 9
2 20 7 23 13 7 10 62 42 139 79 17 9 32 20 32 24 0 4 6 8 14 8 7 0 25 9 38 20
14 10 28 16 32 13 3 -3 6 -2 6 4 0 10 36 26 52 24 4 0 12 8 18 19 6 11 15 18
21 15 5 -4 9 -1 9 5 0 6 5 8 10 5 6 -3 10 -1 10 5 0 6 5 8 10 5 6 -3 10 -1 10
4 0 6 9 11 20 11 11 0 20 5 20 11 0 5 4 8 9 5 4 -3 16 3 26 14 10 11 24 20 32
20 8 0 12 4 8 9 -3 6 4 8 15 6 11 -2 20 0 20 6 0 5 7 9 15 9 8 0 15 4 15 10 0
5 11 12 25 16 14 3 22 11 18 17 -4 6 2 8 16 4 17 -4 21 -2 17 10 -3 8 -6 17
-6 19 0 2 -6 4 -13 4 -7 0 -24 10 -37 23 -14 12 -25 21 -25 20 -1 -8 -45 11
-45 19 0 5 -4 6 -10 3 -5 -3 -15 3 -22 15 -7 11 -20 20 -30 20 -9 0 -20 5 -23
10 -4 6 -11 8 -16 5 -5 -4 -9 1 -9 10 0 9 -4 14 -10 10 -5 -3 -18 3 -28 13
-10 10 -24 16 -30 14 -7 -2 -15 3 -18 11 -3 9 -30 25 -60 37 -30 13 -52 25
-49 28 2 3 -18 16 -45 29 -28 13 -50 28 -50 33 0 6 -3 10 -7 9 -16 -2 -53 14
-53 23 0 6 -7 7 -16 4 -8 -3 -12 -2 -9 4 3 6 -1 10 -9 10 -9 0 -16 5 -16 10 0
6 -7 10 -15 10 -8 0 -15 4 -15 10 0 5 -7 7 -15 4 -9 -4 -18 1 -21 10 -6 15
-62 46 -81 45 -4 0 -10 6 -13 14 -4 11 -11 12 -27 6z"/>
<path d="M1300 5058 c0 -5 -6 -8 -13 -8 -7 0 -22 -8 -33 -18 -19 -18 -54 -36
-65 -34 -4 1 -19 -10 -33 -23 -14 -13 -26 -21 -26 -18 0 3 -7 0 -15 -7 -8 -7
-15 -9 -15 -6 0 4 -10 -2 -22 -13 -11 -11 -25 -18 -30 -15 -4 3 -11 -2 -14
-10 -3 -9 -10 -13 -15 -10 -5 3 -9 0 -9 -6 0 -6 -4 -9 -9 -6 -5 3 -11 -1 -15
-9 -3 -9 -12 -12 -22 -8 -13 5 -15 3 -9 -7 6 -10 4 -12 -8 -7 -9 3 -20 0 -24
-6 -8 -14 -93 -60 -93 -51 0 2 -10 -4 -22 -15 -11 -11 -25 -18 -30 -15 -4 3
-8 1 -8 -5 0 -5 -9 -13 -20 -16 -11 -4 -17 -11 -14 -17 4 -6 2 -8 -3 -5 -6 4
-16 1 -22 -7 -7 -8 -21 -12 -33 -8 -14 3 -19 1 -14 -6 7 -11 -38 -38 -57 -34
-4 1 -7 -3 -7 -9 0 -6 -6 -9 -13 -6 -8 3 -20 -3 -28 -14 -7 -10 -19 -19 -27
-19 -7 0 -15 -7 -18 -15 -5 -13 -9 -13 -22 -3 -11 9 -14 9 -9 1 4 -7 0 -16 -9
-21 -18 -10 -29 -62 -13 -62 6 0 6 -7 1 -17 -5 -10 -6 -27 -2 -38 4 -11 3 -29
-3 -40 -7 -13 -7 -20 1 -23 8 -2 9 -10 3 -20 -5 -9 -5 -26 -1 -37 4 -11 3 -29
-3 -40 -7 -13 -7 -20 2 -23 6 -2 11 -8 11 -13 0 -6 -4 -8 -9 -5 -4 3 -6 -7 -4
-22 6 -41 6 -46 -2 -64 -4 -11 -3 -18 4 -18 9 0 9 -5 0 -21 -8 -16 -8 -20 1
-14 9 6 9 3 1 -13 -6 -12 -7 -23 -2 -26 9 -6 7 -40 -4 -68 -4 -11 -3 -18 4
-18 9 0 9 -5 0 -21 -9 -17 -8 -20 2 -14 8 5 10 4 5 -4 -11 -18 -15 -61 -5 -61
5 0 4 -11 -1 -25 -6 -16 -6 -25 1 -25 6 0 6 -6 -1 -19 -13 -26 -13 -34 3 -25
8 5 8 2 -2 -9 -8 -11 -9 -17 -2 -17 7 0 8 -8 0 -27 -7 -19 -7 -29 0 -31 7 -2
8 -10 2 -20 -5 -9 -5 -26 -1 -37 4 -11 3 -29 -3 -40 -7 -13 -7 -20 1 -23 8 -2
9 -10 3 -20 -5 -9 -5 -26 -1 -37 4 -11 3 -29 -3 -40 -7 -13 -7 -20 2 -23 6 -2
11 -8 11 -13 0 -6 -3 -8 -7 -6 -5 3 -9 -6 -9 -19 -1 -13 2 -24 7 -24 5 0 4
-12 -2 -27 -7 -19 -6 -28 2 -33 8 -6 7 -9 -2 -13 -10 -4 -10 -6 -2 -6 9 -1 10
-8 2 -28 -7 -19 -7 -29 0 -31 8 -3 8 -10 0 -24 -8 -16 -8 -19 1 -13 9 6 9 2 0
-16 -10 -17 -10 -24 -2 -27 9 -3 9 -9 1 -24 -8 -16 -8 -19 1 -13 9 6 9 3 1
-13 -6 -12 -7 -23 -2 -26 9 -6 7 -40 -4 -68 -4 -11 -3 -18 4 -18 9 0 9 -5 0
-21 -9 -17 -8 -20 2 -14 8 5 10 4 5 -4 -12 -18 -15 -81 -5 -81 6 0 6 -7 1 -17
-5 -10 -6 -27 -2 -38 4 -11 3 -28 -2 -39 -7 -12 -7 -21 0 -25 7 -4 7 -12 2
-20 -4 -8 -4 -24 0 -37 5 -12 6 -25 2 -29 -10 -10 -9 -29 1 -36 5 -4 6 -13 1
-20 -12 -20 -14 -59 -3 -59 6 0 6 -7 1 -17 -5 -10 -6 -27 -2 -38 4 -11 3 -29
-3 -40 -7 -13 -7 -20 1 -23 8 -2 9 -10 3 -20 -5 -9 -5 -26 -1 -37 4 -11 3 -29
-3 -40 -7 -13 -7 -20 2 -23 6 -2 11 -8 11 -13 0 -6 -4 -8 -9 -5 -4 3 -6 -7 -4
-22 6 -41 6 -46 -2 -64 -4 -11 -3 -18 4 -18 9 0 9 -5 0 -21 -8 -16 -8 -20 1
-14 9 6 9 3 1 -13 -6 -12 -7 -23 -2 -26 9 -6 7 -40 -4 -68 -4 -11 -3 -18 4
-18 9 0 9 -5 0 -21 -9 -17 -8 -20 2 -14 8 5 10 4 5 -4 -11 -18 -15 -61 -5 -61
5 0 4 -12 -2 -27 -7 -19 -6 -28 2 -33 8 -6 7 -9 -2 -13 -10 -4 -10 -6 -2 -6 9
-1 10 -8 2 -28 -7 -20 -7 -29 1 -31 7 -3 7 -9 -2 -20 -10 -12 -10 -16 -1 -19
9 -3 10 -10 4 -21 -5 -9 -5 -26 -1 -37 4 -11 3 -29 -3 -40 -7 -13 -7 -20 1
-23 7 -2 9 -10 4 -20 -17 -38 -2 -105 23 -96 8 3 15 1 15 -6 0 -6 4 -9 8 -6 5
3 19 -4 30 -15 12 -11 22 -17 22 -14 0 3 17 -7 37 -22 20 -15 33 -21 28 -13
-4 8 3 5 17 -7 13 -13 30 -23 36 -23 7 0 12 -5 12 -11 0 -5 4 -8 8 -5 5 3 16
-4 25 -15 10 -11 22 -17 27 -14 6 4 13 -1 16 -9 3 -9 9 -14 14 -11 4 2 17 -5
28 -16 12 -11 22 -16 22 -12 0 4 6 1 13 -7 12 -15 30 -22 54 -23 7 0 10 -4 7
-9 -3 -4 2 -8 11 -8 9 0 13 -5 10 -10 -4 -6 -3 -9 2 -8 4 1 18 -3 30 -10 13
-7 23 -10 23 -7 0 3 11 -6 25 -20 23 -22 44 -30 68 -26 5 1 6 -3 3 -8 -4 -5 7
-15 24 -23 16 -7 30 -17 30 -21 0 -5 4 -6 9 -3 5 3 11 -1 15 -9 3 -8 12 -12
21 -9 8 3 15 1 15 -4 0 -13 59 -44 70 -37 4 3 10 -5 13 -16 18 -70 24 38 24
476 0 406 2 488 14 495 8 6 19 4 30 -6 8 -7 21 -14 27 -14 7 0 12 -4 12 -10 0
-5 7 -10 15 -10 8 0 24 -9 35 -20 11 -11 27 -20 35 -20 8 0 15 -5 15 -11 0 -5
4 -8 8 -5 5 3 16 -4 25 -15 10 -11 22 -17 27 -14 6 3 10 1 10 -4 0 -6 7 -11
15 -11 8 0 15 -5 15 -11 0 -5 4 -8 10 -4 5 3 19 -4 31 -16 18 -18 33 -25 62
-28 4 -1 7 -8 7 -16 0 -8 3 -14 8 -13 14 4 52 -13 52 -23 0 -6 4 -8 9 -5 5 4
11 2 13 -3 1 -5 10 -11 18 -13 8 -2 21 -9 28 -16 8 -7 18 -10 23 -7 5 4 9 2 9
-4 0 -9 18 -21 80 -53 14 -7 32 -20 41 -30 9 -10 19 -15 22 -12 3 4 13 -1 22
-10 9 -9 22 -16 29 -16 7 0 22 -9 34 -20 12 -11 24 -20 27 -20 22 1 25 -1 19
-12 -5 -7 -2 -9 8 -5 28 10 53 -33 54 -91 0 -28 -4 -52 -9 -52 -5 0 -5 -6 1
-13 12 -14 11 -35 -1 -55 -5 -6 -4 -12 0 -12 11 0 10 -121 -2 -139 -5 -9 -4
-12 2 -8 13 8 11 -96 -2 -105 -7 -5 -7 -8 0 -8 6 0 11 -9 12 -20 1 -13 -2 -18
-9 -14 -7 5 -8 2 -3 -6 12 -19 14 -100 3 -100 -5 0 -6 -6 -1 -12 13 -21 12
-69 -1 -61 -7 4 -7 1 1 -7 9 -9 9 -19 2 -33 -6 -11 -7 -17 -2 -14 5 3 9 -20 9
-54 0 -32 -5 -59 -10 -59 -4 0 -4 -6 1 -12 10 -14 10 -124 0 -134 -9 -9 49
-55 72 -57 11 0 17 -5 15 -9 -3 -4 2 -8 11 -8 9 0 13 -5 9 -11 -4 -7 -1 -10 7
-7 8 3 20 -1 27 -9 8 -7 17 -11 22 -8 4 3 10 -2 14 -10 3 -8 12 -15 21 -15 8
0 15 -4 15 -10 0 -5 9 -10 20 -10 11 0 20 -4 20 -10 0 -5 7 -10 16 -10 9 0 12
-5 8 -12 -4 -6 -3 -8 3 -5 6 4 22 -2 36 -14 15 -11 29 -20 32 -19 20 1 25 -2
25 -16 0 -10 5 -14 15 -10 9 3 18 -1 21 -9 4 -8 10 -13 14 -10 4 2 20 -7 36
-20 16 -14 37 -25 47 -25 9 0 17 -4 17 -10 0 -5 9 -10 21 -10 11 0 18 -4 15
-8 -2 -4 4 -14 16 -21 16 -10 19 -10 12 1 -4 7 2 4 14 -6 12 -11 22 -15 22
-11 0 4 8 -1 18 -12 17 -20 51 -38 65 -34 4 0 10 -6 13 -14 3 -8 10 -12 15 -9
5 3 12 -2 15 -10 3 -9 10 -13 15 -10 5 3 9 1 9 -5 0 -6 7 -7 17 -4 10 4 14 2
9 -5 -4 -6 3 -12 16 -14 13 -2 22 -9 21 -15 -4 -18 24 -23 37 -7 7 8 18 14 25
14 7 0 16 7 19 16 3 8 10 13 15 9 6 -3 20 5 32 17 12 13 19 18 15 11 -4 -8 0
-8 18 0 13 7 22 15 20 18 -5 9 26 20 37 13 5 -3 12 2 15 10 3 9 12 16 20 16 8
0 14 5 14 11 0 6 6 9 12 7 7 -3 19 1 26 9 8 7 19 10 25 6 7 -3 9 -3 5 1 -9 10
14 36 26 29 4 -3 11 -1 15 4 3 5 23 17 44 26 20 10 37 22 37 27 0 6 3 10 8 9
15 -2 52 14 52 23 0 5 5 6 10 3 6 -3 10 -2 10 3 0 4 21 19 48 32 26 13 50 28
53 33 3 5 8 8 10 7 12 -4 38 14 32 23 -3 5 -2 7 4 4 5 -3 24 3 42 14 18 11 29
14 25 7 -4 -7 3 -3 15 10 12 12 26 20 32 17 5 -4 9 -1 9 4 0 6 6 11 13 11 7 0
19 9 27 19 7 11 17 18 22 15 17 -11 29 8 16 24 -7 9 -8 13 -3 10 7 -4 10 34
10 113 0 72 -4 119 -10 119 -6 0 -6 3 0 8 14 9 14 225 0 234 -6 5 -6 8 0 8 14
0 14 230 0 230 -7 0 -6 3 0 8 14 9 14 225 0 234 -6 5 -6 8 0 8 14 0 14 230 0
230 -7 0 -6 3 0 8 14 9 14 225 0 234 -6 5 -6 8 0 8 14 0 14 130 1 130 -7 0 -8
3 -1 8 13 10 14 165 0 174 -6 5 -6 8 0 8 14 0 14 230 0 230 -7 0 -6 3 0 8 14
9 14 225 0 234 -6 5 -6 8 0 8 14 0 14 230 0 230 -7 0 -6 3 0 8 14 9 14 225 0
234 -7 5 -7 8 0 8 13 0 13 209 0 229 -5 10 -4 12 3 7 7 -4 12 -4 12 1 0 4 -21
19 -47 33 -27 14 -57 33 -68 43 -10 9 -24 16 -29 14 -6 -2 -21 8 -33 21 -13
14 -23 21 -23 17 0 -4 -9 0 -20 10 -11 10 -20 15 -20 10 0 -4 -7 -2 -15 5 -8
7 -15 9 -15 5 0 -5 -9 2 -20 15 -11 13 -20 19 -20 15 0 -4 -8 -1 -18 8 -10 10
-22 14 -25 10 -4 -3 -7 -1 -7 5 0 6 -17 19 -37 29 -21 9 -41 22 -45 27 -5 7
-8 7 -8 1 0 -7 -3 -7 -8 0 -14 20 -56 50 -47 35 5 -9 0 -8 -13 4 -12 11 -22
15 -22 11 0 -5 -9 1 -20 13 -12 12 -27 22 -35 22 -8 0 -15 5 -15 11 0 5 -4 8
-9 4 -6 -3 -13 1 -18 9 -4 7 -17 16 -28 18 -11 2 -19 10 -17 17 1 7 -2 9 -9 5
-7 -4 -18 1 -26 11 -9 14 -13 15 -13 4 0 -9 -8 -5 -23 11 -12 14 -31 27 -42
28 -10 2 -26 11 -35 20 -18 20 -40 26 -40 11 0 -6 -7 -9 -15 -5 -8 3 -14 0
-12 -7 1 -7 -4 -11 -10 -9 -7 1 -13 -3 -13 -9 0 -6 -7 -8 -16 -5 -8 3 -12 2
-9 -4 3 -6 -1 -10 -10 -10 -9 0 -13 -4 -10 -10 3 -6 -1 -7 -9 -4 -10 4 -18 -1
-22 -11 -4 -9 -12 -14 -19 -11 -8 3 -16 -2 -19 -10 -3 -8 -9 -13 -13 -12 -9 2
-55 -21 -63 -32 -6 -8 -84 -44 -88 -41 -2 1 -10 -6 -18 -16 -7 -10 -14 -14
-14 -10 0 5 -12 -1 -26 -12 -15 -11 -31 -18 -38 -14 -6 3 -8 3 -4 -2 9 -10
-53 -45 -66 -37 -5 3 -7 1 -4 -4 3 -5 0 -15 -8 -22 -10 -9 -14 -10 -14 -1 0 7
-8 5 -20 -6 -11 -10 -20 -14 -20 -9 0 5 -5 1 -11 -9 -6 -9 -14 -15 -20 -12 -5
4 -9 2 -9 -3 0 -9 -50 -37 -62 -34 -5 1 -8 -3 -8 -9 0 -5 -4 -7 -10 -4 -5 3
-10 1 -10 -6 0 -7 -3 -9 -7 -6 -3 4 -12 -1 -19 -11 -7 -9 -16 -17 -21 -18 -21
-2 -83 -35 -83 -45 0 -5 -4 -8 -9 -4 -5 3 -12 1 -16 -5 -4 -6 -11 -7 -17 -4
-7 4 -7 0 -1 -12 11 -23 11 -34 -1 -53 -6 -9 -5 -12 1 -8 6 4 9 -18 9 -54 0
-32 -5 -59 -10 -59 -5 0 -4 -5 1 -12 11 -16 10 -188 -1 -207 -6 -9 -5 -12 1
-8 13 8 10 -63 -2 -83 -5 -8 -4 -11 3 -6 12 7 11 -42 -2 -63 -6 -9 -5 -12 2
-7 12 7 11 -32 -3 -53 -5 -9 -4 -12 2 -8 6 4 9 -18 9 -54 0 -32 -4 -59 -9 -59
-4 0 -5 -6 0 -12 12 -20 12 -69 0 -61 -6 4 -7 1 -1 -8 12 -19 13 -89 1 -113
-7 -14 -6 -16 4 -11 9 6 10 2 6 -16 -4 -13 -7 -27 -7 -30 0 -11 -50 3 -50 13
0 6 -7 8 -15 4 -9 -3 -19 3 -25 14 -6 11 -20 20 -30 20 -11 0 -20 5 -20 10 0
6 -7 10 -15 10 -8 0 -15 5 -15 10 0 6 -6 10 -13 10 -7 0 -23 9 -35 20 -24 23
-36 26 -27 8 4 -7 0 -5 -8 4 -8 10 -17 15 -20 11 -4 -3 -7 -1 -7 5 0 6 -20 21
-45 32 -25 11 -45 25 -45 31 0 6 -6 9 -14 6 -8 -3 -17 1 -20 9 -3 8 -15 14
-26 14 -12 0 -18 5 -15 10 3 6 -1 10 -9 10 -9 0 -16 5 -16 10 0 6 -9 10 -20
10 -11 0 -23 7 -27 16 -4 12 -7 13 -14 3 -6 -10 -10 -9 -15 5 -6 14 -41 37
-65 40 -3 1 -13 9 -23 19 -10 9 -24 17 -32 17 -8 0 -14 5 -14 11 0 5 -4 8 -9
5 -5 -3 -15 1 -22 10 -17 20 -65 45 -73 37 -3 -4 -6 -1 -6 5 0 7 -7 12 -15 12
-8 0 -15 5 -15 10 0 6 -7 10 -15 10 -8 0 -15 5 -15 11 0 5 -4 8 -9 5 -5 -3
-12 2 -16 12 -12 27 -12 1004 0 1025 5 9 15 17 22 17 7 0 18 9 25 19 6 10 18
17 25 14 7 -3 13 0 13 7 0 6 5 8 10 5 6 -3 10 -1 10 4 0 6 6 11 14 11 8 0 21
6 28 13 7 7 32 22 56 32 23 10 42 22 42 27 0 4 7 8 15 8 8 0 15 5 15 11 0 5 4
8 9 5 5 -3 14 1 21 9 7 8 16 12 21 9 5 -3 9 -2 9 3 0 4 13 14 28 21 16 6 38
21 50 32 12 12 22 16 22 9 0 -8 6 -7 18 3 9 8 25 18 35 21 9 4 17 11 17 18 0
6 7 9 15 5 9 -3 15 0 15 9 0 8 3 14 8 13 14 -4 52 13 52 23 0 6 4 8 9 5 4 -3
19 3 31 14 13 11 28 20 34 20 6 0 22 9 36 20 14 11 33 20 44 20 11 0 16 5 13
13 -3 8 0 14 6 14 24 1 41 8 59 26 23 22 23 31 -2 24 -13 -3 -20 0 -20 9 0 8
-7 14 -16 14 -9 0 -25 10 -36 23 -11 12 -16 15 -12 8 4 -9 -7 -4 -27 9 -19 13
-36 28 -37 32 -2 5 -7 6 -12 3 -5 -3 -16 2 -24 11 -9 8 -16 12 -16 8 0 -4 -7
1 -16 12 -8 10 -13 13 -9 7 12 -25 -11 -12 -27 15 -10 15 -18 21 -18 13 0 -11
-4 -10 -16 5 -8 10 -12 12 -8 4 8 -15 -33 14 -48 35 -5 7 -8 7 -8 0 0 -7 -3
-7 -8 0 -4 6 -27 21 -52 34 -25 14 -48 29 -52 35 -4 6 -8 7 -8 3 0 -5 -15 2
-32 15 -48 34 -79 49 -89 42 -5 -3 -9 2 -9 10 0 14 -12 20 -32 17 -5 0 -8 4
-8 9 0 6 -5 10 -10 10 -6 0 -20 9 -32 20 -12 10 -25 17 -29 14 -5 -3 -14 4
-21 16 -7 11 -16 20 -21 20 -4 0 -5 -4 -2 -10 3 -6 -1 -7 -9 -4 -9 3 -16 11
-16 18 0 6 -11 11 -25 11 -14 0 -25 -3 -25 -7z"/>
<path d="M4755 5021 c-27 -15 -58 -34 -69 -43 -10 -10 -23 -15 -28 -12 -4 3
-8 1 -8 -3 0 -5 -18 -16 -40 -26 -22 -9 -40 -21 -40 -26 0 -5 -10 -11 -22 -15
-13 -3 -25 -6 -28 -7 -3 -1 -17 -10 -31 -20 -14 -10 -30 -15 -34 -11 -5 4 -5
2 -1 -5 4 -7 -7 -16 -29 -24 -19 -7 -35 -17 -35 -22 0 -5 -6 -7 -12 -5 -13 5
-22 -1 -59 -34 -10 -10 -19 -15 -19 -11 0 4 -5 2 -12 -5 -7 -7 -20 -12 -30
-12 -10 0 -18 -4 -18 -10 0 -5 -7 -10 -15 -10 -8 0 -15 -4 -15 -9 0 -5 -16
-15 -35 -22 -19 -7 -35 -17 -35 -21 0 -4 -6 -8 -14 -8 -8 0 -21 -6 -28 -14
-21 -20 -75 -46 -82 -39 -3 4 -6 1 -6 -6 0 -7 -4 -10 -9 -7 -5 3 -12 -1 -15
-10 -9 -22 -8 -24 9 -24 8 0 15 -5 15 -11 0 -5 4 -8 9 -4 5 3 17 -3 27 -12 10
-10 20 -18 23 -18 13 -1 57 -29 64 -41 4 -7 14 -11 22 -8 8 4 15 1 15 -5 0 -6
6 -11 13 -11 8 0 22 -9 32 -20 10 -11 22 -17 26 -14 5 3 9 1 9 -4 0 -8 26 -20
46 -20 3 -1 14 -10 24 -22 10 -12 22 -22 27 -22 17 -1 39 -12 53 -27 8 -9 22
-17 30 -19 8 -2 17 -8 18 -13 2 -5 7 -7 12 -4 4 3 13 -2 20 -10 7 -8 19 -15
26 -15 8 0 14 -5 14 -11 0 -6 7 -9 15 -5 10 3 15 -1 15 -11 0 -9 3 -13 6 -10
4 4 20 -3 35 -14 16 -11 29 -17 29 -12 0 4 5 0 11 -10 6 -9 15 -15 20 -11 6 3
17 -3 25 -15 9 -12 20 -19 25 -16 5 4 9 1 9 -4 0 -6 5 -11 12 -11 6 0 20 -8
31 -17 15 -13 18 -14 12 -3 -4 8 3 5 17 -8 l25 -23 0 -1495 c0 -822 4 -1498 8
-1502 4 -4 10 -1 12 6 3 6 10 12 18 12 7 0 18 7 25 15 7 8 16 12 21 9 5 -3 9
2 9 11 0 9 4 14 9 11 9 -6 59 16 70 31 7 9 93 51 101 49 3 0 16 9 30 22 13 12
30 22 37 22 7 0 13 5 13 11 0 6 6 9 14 6 8 -3 17 1 20 9 3 9 10 13 15 9 6 -3
13 0 18 7 9 15 73 52 73 43 0 -4 7 0 15 7 36 33 46 39 54 34 5 -3 12 1 15 10
3 8 10 12 16 9 5 -3 10 -1 10 4 0 6 7 11 15 11 8 0 24 9 35 20 12 12 25 18 30
15 6 -4 10 -3 10 2 0 4 18 17 40 27 22 11 40 22 40 26 0 7 36 22 50 22 3 0 11
6 18 14 7 8 9 14 5 14 -4 0 -1 5 7 10 12 8 12 10 1 10 -11 0 -11 3 -1 15 7 8
8 15 3 15 -5 0 -9 9 -10 20 -1 13 2 18 10 13 9 -5 9 -3 0 8 -10 12 -10 18 -1
27 7 7 8 12 2 12 -5 0 -10 9 -11 20 -1 13 2 18 10 14 9 -5 9 -4 0 6 -8 9 -9
19 -3 31 7 11 7 20 0 24 -5 3 -10 11 -10 16 0 6 4 8 8 5 10 -6 9 24 -1 41 -4
6 -3 14 3 18 6 4 7 12 3 18 -10 17 -11 59 -1 79 5 10 4 19 -2 23 -5 3 -10 11
-10 16 0 6 4 7 10 4 6 -4 7 2 1 18 -5 13 -5 30 -1 37 5 8 5 19 -1 26 -7 8 -6
14 1 19 8 5 8 11 -1 21 -9 11 -9 17 1 29 7 8 8 15 3 15 -5 0 -9 9 -10 20 -1
13 2 18 10 14 9 -5 9 -4 0 6 -8 9 -9 19 -3 31 7 11 7 20 0 24 -5 3 -10 11 -10
16 0 6 6 7 13 3 9 -6 9 -5 0 7 -10 12 -10 18 -1 27 7 7 8 12 2 12 -5 0 -10 9
-11 20 -1 13 2 18 10 14 9 -5 9 -4 0 6 -8 9 -9 19 -3 31 7 11 7 20 0 24 -5 3
-10 11 -10 16 0 6 4 8 8 5 10 -6 9 24 -1 41 -4 6 -3 14 3 18 6 4 7 12 3 18
-10 17 -11 59 -1 79 5 10 4 19 -2 23 -5 3 -10 11 -10 16 0 6 4 7 10 4 6 -4 7
2 1 18 -5 13 -5 30 -1 37 5 8 5 19 -1 26 -7 8 -6 14 1 19 8 5 8 11 -1 21 -9
11 -9 17 1 29 7 8 8 15 3 15 -5 0 -9 9 -10 20 -1 13 2 18 10 14 9 -5 9 -4 0 6
-8 9 -9 19 -3 31 7 11 7 20 0 24 -5 3 -10 11 -10 16 0 6 6 7 13 3 9 -6 9 -5 0
7 -10 12 -10 18 -1 27 7 7 8 12 2 12 -5 0 -10 9 -11 20 -1 13 2 18 10 14 9 -5
9 -4 0 6 -8 9 -9 19 -3 31 7 11 7 20 0 24 -5 3 -10 11 -10 16 0 6 4 8 8 5 10
-6 9 24 -1 41 -4 6 -3 14 3 18 6 4 7 12 3 18 -10 17 -11 59 -1 79 5 10 4 19
-2 23 -5 3 -10 11 -10 16 0 6 4 7 10 4 6 -4 7 2 1 18 -5 13 -5 30 -1 37 5 8 5
19 -1 26 -7 8 -6 14 1 19 8 5 8 11 -1 21 -9 11 -9 17 1 29 7 8 8 15 3 15 -5 0
-9 9 -10 20 -1 13 2 18 10 14 9 -5 9 -4 0 6 -8 9 -9 19 -3 31 7 11 7 20 0 24
-5 3 -10 11 -10 16 0 6 6 7 13 3 9 -6 9 -5 0 7 -10 12 -10 18 -1 27 7 7 8 12
2 12 -5 0 -10 9 -11 20 -1 13 2 18 10 14 9 -5 9 -4 0 6 -8 9 -9 19 -3 31 7 11
7 20 0 24 -5 3 -10 11 -10 16 0 6 4 8 8 5 10 -6 9 24 -1 41 -4 6 -3 14 3 18 6
4 7 12 3 18 -10 17 -11 59 -1 79 5 10 4 19 -2 23 -5 3 -10 11 -10 16 0 6 4 7
10 4 6 -4 7 2 1 18 -5 13 -5 30 -1 37 5 8 5 19 -1 26 -7 8 -6 14 1 19 8 5 8
11 -1 21 -9 11 -9 17 1 29 7 8 8 15 3 15 -5 0 -9 9 -10 20 -1 13 2 18 10 14 9
-5 9 -4 0 6 -8 9 -9 19 -3 31 7 11 7 20 0 24 -5 3 -10 11 -10 16 0 6 6 7 13 3
9 -6 9 -5 0 7 -10 12 -10 18 -1 27 7 7 8 12 2 12 -5 0 -10 9 -11 20 -1 13 2
18 10 14 9 -5 9 -4 0 6 -8 9 -9 19 -3 31 7 11 7 20 0 24 -5 3 -10 11 -10 16 0
6 4 8 8 5 10 -6 9 24 -1 41 -4 6 -3 15 3 18 6 4 7 12 2 18 -9 14 -8 62 3 92 5
16 5 17 -4 5 -9 -13 -11 -13 -11 2 0 10 -3 18 -7 17 -16 -2 -53 14 -53 22 0 5
-3 8 -7 7 -9 -3 -65 32 -74 46 -4 5 -12 5 -18 2 -6 -4 -11 -3 -11 2 0 4 -19
19 -42 32 -24 13 -49 30 -56 37 -8 7 -18 11 -23 8 -5 -4 -9 -1 -9 4 0 6 -7 11
-15 11 -8 0 -15 5 -15 12 0 6 -3 9 -6 5 -4 -3 -21 5 -39 18 -17 14 -38 25 -46
25 -8 0 -21 9 -29 19 -7 11 -17 18 -22 15 -4 -3 -8 0 -8 5 0 6 -9 11 -19 11
-11 0 -27 10 -36 23 -8 12 -18 21 -20 19 -7 -3 -78 27 -85 37 -3 5 -24 18 -47
30 -24 12 -43 26 -43 31 0 6 -3 9 -7 9 -21 -3 -33 2 -27 13 5 7 3 8 -5 4 -7
-5 -20 -1 -29 7 -29 24 -45 24 -97 -2z"/>
</g>
</svg>
