<svg  xmlns="http://www.w3.org/2000/svg" xmlns:xlink="http://www.w3.org/1999/xlink" width="820" height="200" viewBox="0 0 844 224"><path transform="translate(0 100)" d="M51,11.4L45.8,6.9Q45.1,6.3 45.1,5.5Q45.1,5.2 45.3,4.6Q46.7,1.2 46.9,-3.7L47.5,-23.4L47.5,-24.7L24.2,-23.5L24.2,-16.5L23.2,-15.7L20.2,-18.3L18.1,-20.2Q17.3,-20.9 17.6,-22.1L18.4,-25.6L18.5,-27L18,-45Q17.8,-50 16.6,-54.1L15,-58.3L16,-59.2L23.6,-53.1L47.3,-54.4L47.4,-55L47.2,-67.8Q47,-73.7 45.6,-77.4L44.5,-79.9L44.1,-80.9L44.8,-81.7L45.5,-81.3L54.5,-74Q55.1,-73.5 55.1,-73.3Q55.5,-72.8 55.3,-72.3Q54.4,-70.3 54.1,-68.2Q53.8,-66.1 53.7,-63.2L53.4,-55.9L53.4,-54.9L61.8,-55.3L72.9,-56.2Q74.5,-56.3 75.75,-57.15Q77,-58 79.3,-60Q80.8,-58.9 82.2,-58Q86.8,-54.6 87.4,-54.1Q87.7,-53.8 87.7,-53.5Q87.7,-53 87.1,-52.6Q84,-49.9 83.2,-45.1L80.8,-31.5L80.8,-30.9L83.8,-28.4L84.5,-27.6Q84.7,-27.4 84.7,-26.9Q84.7,-26.3 83.9,-26.1L82.2,-25.9L67.5,-25.5L53.4,-24.9L52.8,-24.9Q52.6,-15.5 52.6,-11.4Q52.6,-6.8 52.8,3L52.9,11.5L52.1,12.1L51,11.4ZM47.4,-29L47.4,-50.2L23.8,-48.8L24.2,-27.8L47.4,-29ZM77.2,-51.8L53.3,-50.6L52.9,-29.2L74.8,-30.4Q76.2,-37.6 77.2,-51.8Z"></path><path transform="translate(100 100)" d="M7.1,5.5L12.2,3.4Q25.2,-2.2 34.3,-9.3Q41,-14.5 45.6,-19.8L46.6,-21.2L45.7,-22.1L34.2,-33.9Q33.4,-34.7 32.2,-35.5Q31,-36.3 29.9,-37L28.7,-37.9L28,-38.8L33,-40.7L33.3,-40.8Q33.7,-40.8 34.4,-40.3L35.9,-38.7Q40.5,-33.6 45.4,-28.6L49.3,-24.6L50.3,-25.9Q56.7,-36 58.6,-44.5Q59.1,-46.8 59.1,-48.8Q59.1,-50.2 59,-50.9L60.2,-51.6L61.2,-50.7L66.7,-45.2L67.6,-44L66.6,-42.8Q65.6,-41.6 64.7,-39.9Q62.2,-34.5 56.4,-25.3L53.5,-21.1L54.5,-20.1Q63.4,-12.4 70.5,-7.6Q78.9,-2 87.5,0.5L93.3,1.9L93.6,3.8L90.2,4.2L73.3,5.7Q72.1,5.7 71.2,4.8L62.3,-4.8L51.3,-16.3L50.3,-17.3L49.7,-16.5Q39.7,-5.3 23.9,2Q17.1,5 8.5,7.8L8,7.9L7.1,5.5ZM9.1,-52.8L9.7,-54.1L12.1,-54.1Q16.7,-54 25.7,-54.6L46.1,-56L56.1,-56.9Q58.8,-57.1 61.5,-57.5L64.4,-57.8L71.9,-58.8Q78,-59.6 82.9,-62.4L89.5,-56.8L90.2,-55.8Q90.4,-55.4 90.4,-55.2Q90.4,-54.4 89.7,-54.2Q89.4,-54.1 89.05,-54.05Q88.7,-54 88.4,-53.9L72.9,-53.5Q69.3,-53.4 61.6,-52.8L51.6,-52.2L43,-51.4L35.2,-50.8L25.7,-49.8Q23.5,-49.6 16.1,-48.5L9.1,-52.8ZM53.8,-61.8Q53.3,-61.8 52.6,-62.3L52.3,-62.7Q46.8,-70.7 39.3,-76.5L38.5,-77.2L38.5,-77.4L39.1,-78.7L42.5,-77.6L53.7,-73.3L54.7,-72.7Q56.4,-71.8 56.5,-69.9Q56.5,-65.9 56,-64Q55.7,-62.5 54.4,-61.9Q54.2,-61.8 53.8,-61.8Z"></path><path transform="translate(200 100)" d="M64.5,-5.2L62.3,-7.1L63.3,-8.3L77.1,-1.6Q77.8,-2.1 77.8,-3.3L78,-12.1L78.2,-64L78.2,-66.3L21.8,-62.3L21.8,-61.1L21.3,-30.5L20.8,-4.8L20.9,6.9L20.9,8.4L19.4,8Q16.2,5.1 13.5,1.2L13.9,-0.3Q14.9,-2.8 15.1,-5.9L15.4,-11.4Q15.9,-16.6 16,-21.6Q16.2,-25.6 16.2,-33.8L16.1,-53.8Q16.1,-60.4 14.9,-65.5Q14.2,-68.3 12.2,-72.5L11.9,-73.2L13.1,-74.3L21.1,-66.5L45.6,-68.2L56,-69.1L69.3,-70.7L72.2,-71.1Q73.7,-71.2 75,-72.2L77.9,-74.5L85.9,-68.4L86.9,-67.4L86.3,-66.5Q84.7,-64.7 84.5,-62L84.1,-55.7Q83.4,-45 83.4,-28.1L83.5,-7L83.5,-1.4Q83.5,3.4 80,7.4L79.1,8.3Q78.7,8.6 78.4,8.6Q78.1,8.6 77.7,8.3L77.1,7.6Q72.1,1.2 64.5,-5.2ZM35.7,-33.1L24.5,-46.6L26.2,-48L37.2,-37.3L37.4,-38.1Q40,-46.9 40,-54.3Q40,-56.8 39.3,-59.9L39.1,-60.6L40,-61.3L42.3,-58.9L46.4,-54.3Q46.8,-53.6 46.9,-53.4Q47.1,-52.5 46.9,-52.2Q45.8,-50.4 45.1,-47.7L44.4,-45.6L40.8,-33.7L41.4,-33L45.6,-28.5Q47.3,-26.6 47.2,-24.1L47.1,-19.7Q46.9,-18.3 45.8,-17.9Q44.9,-18.1 44.3,-19.3L39.2,-27.6L38.5,-28.6L37.7,-27.2Q34.5,-21.2 31.7,-17.75Q28.9,-14.3 23.6,-9.4L22.1,-11.1Q30.6,-20.4 35.7,-33.1ZM58.3,-33.5L48.4,-47.3L50.1,-48.7L60,-37.3L61.1,-40.8Q63.3,-48.8 63.9,-53.9Q64.1,-55.9 64.1,-57Q64.1,-58.8 63.6,-61.1L63.6,-61.8L64.6,-62.4L66.8,-60L70.7,-55.4L71.3,-54.5Q71.5,-53.6 71.3,-53.4Q69.7,-50.7 68.2,-46.3L67,-42.9L63.4,-33.8L63.2,-33.2L65.5,-30.4L72.2,-22.5Q73.3,-21.2 73.2,-19.6L72.8,-13Q72.8,-11.8 71.7,-11.4Q71.1,-11.5 70.75,-12Q70.4,-12.5 70.1,-13L67.1,-18.7Q64.5,-23.6 61.1,-28.7L60.3,-27.3Q58.2,-23.2 55.2,-18.8Q49,-10.2 42.4,-5.1L42.2,-5L40.7,-6.6Q52.1,-18.5 58.3,-33.5Z"></path><path transform="translate(300 100)" d="M79.2,-60.8L41.1,-57.7Q32.6,-56.9 28.4,-56.2Q27,-57 25.3,-58.4L25,-57.4Q23.2,-52.2 21,-47.35Q18.8,-42.5 17.2,-40.5Q16.3,-39.3 15.2,-39.3Q14.4,-39.3 13.8,-40Q12.2,-42.1 10.3,-46.1Q13.1,-47.3 14.8,-49.9Q16.3,-52.2 17.3,-54.45Q18.3,-56.7 19.2,-59.8Q20.1,-63.2 20.1,-65.4Q20.1,-66.9 19.9,-67.5L20.8,-68.1Q24.2,-64.7 25.4,-61.9L25.7,-60.8Q36.7,-61.2 49.55,-62.25Q62.4,-63.3 71.3,-64.7Q75.6,-65.3 79.4,-67.5Q86.3,-62.1 90.8,-57.3Q91.7,-56.4 91.7,-55.6Q91.7,-54.5 90,-54.5Q82.5,-54.5 73.8,-50.7L72.8,-51.8Q76.7,-56.5 79.2,-60.8ZM34,-1.6L34.6,-2.8Q42,-0.3 48.6,1.5L49,1.6Q49.3,1.6 49.4,0.9Q49.7,-2.9 49.7,-12.1Q49.7,-18 49.6,-20.7Q41.1,-20.2 28,-19.1Q21.7,-18.5 15,-17.3Q12.6,-18.9 8.2,-22.3L8.7,-22.9Q10.2,-22.8 13.2,-22.8Q17.7,-22.8 26.7,-23.4L49.5,-24.7Q49.5,-26.8 49.3,-28.6Q49.1,-31.1 48.7,-31.9Q47.5,-34.1 44.8,-37.1L45.7,-37.9Q49.4,-36 52.3,-33.8Q57.7,-39.4 62.1,-44.6Q49.3,-43.4 36.1,-41.6Q34.2,-41.4 31.1,-40.8Q29.3,-42.2 25.5,-45.2L25.8,-45.9Q27.2,-45.8 29.6,-45.8L35.8,-46Q43.8,-46.5 50.55,-47.25Q57.3,-48 60.3,-48.7Q62,-49.1 63.3,-49.6Q64.6,-50.1 66.3,-51.2Q71.9,-47 73.5,-45.1Q73.9,-44.7 73.9,-44.3Q73.9,-43.7 72.9,-43.4Q70.9,-42.8 69.5,-42.2Q68.1,-41.6 66.2,-40.5Q61.9,-37.9 53.9,-32.2Q54.6,-31 54.7,-29.6Q54.8,-29.1 54.8,-27.3L54.9,-25Q69.9,-26.1 75.1,-26.9Q78.1,-27.3 80.05,-27.9Q82,-28.5 84.5,-29.7Q89.6,-26.1 91.2,-24.3Q91.8,-23.6 91.8,-23Q91.8,-22.5 91.4,-22.2Q91,-21.9 90.4,-21.9Q72.2,-21.9 54.9,-21L55.1,2.4Q55.1,4.2 54.25,6.8Q53.4,9.4 52.3,10.5Q51.4,11.2 51.1,11.2Q50.7,11.2 50.2,10.6Q45.1,5.5 34,-1.6ZM46.7,-72.05Q43.9,-75.2 39.9,-78.4L40.5,-79.5Q48,-77.9 54.8,-75.3Q56.6,-74.6 56.6,-73Q56.6,-70 55.7,-66.2Q55.4,-65.2 54.6,-64.5Q53.8,-63.8 53,-63.8Q52.2,-63.8 51.9,-64.4Q49.5,-68.9 46.7,-72.05Z"></path><path transform="translate(400 100)" d="M60.6,4.8L60.8,3.5Q61.8,0.3 62,-5.2L62.4,-22.7L62.6,-39.2L62.6,-40.4L59.9,-40.2Q54.4,-39.9 50.75,-39.55Q47.1,-39.2 43.5,-38.4L37.9,-42.7L38.3,-43.8Q44.6,-43.9 56.1,-44.3L62.5,-44.6L62.6,-45.8L62.2,-63.1Q62.1,-66.9 61.3,-70.7Q60.5,-74.5 58.2,-79.1L59.4,-80Q64.9,-75.6 70.3,-70.5Q69.2,-68.3 68.9,-66Q68.6,-63.7 68.5,-60.3L68.1,-46L68.1,-45L73.2,-45.3L81,-46.2Q85.4,-46.9 88.5,-48.7L92.8,-45.3L94.6,-43.8Q95.1,-43.1 95.1,-42.6Q95.1,-41.5 93.6,-41.3L92.7,-41.3L74.3,-41L67.9,-40.7L67.9,10L66.9,10.9Q64.3,8.9 60.6,4.8ZM23.75,2.3Q21.4,0.1 21,-0.7Q21,-1.6 21.9,-2.1L22.7,-2.6Q24.5,-3.5 24.7,-6.1L25.5,-22.3Q25.8,-28.2 26,-40.1L26,-41.2Q18.7,-39.6 11.6,-37.3L5.8,-41.5L6.1,-42.4L8.9,-42.7Q13.9,-43 21.6,-44.7Q24.8,-45.4 26.9,-48L27.4,-48.5Q31.5,-46.6 34.1,-44.8Q35.1,-44.1 34.3,-43.3Q32,-40.9 31.7,-37.4L31.2,-28.1L30.6,-16.3L30.3,-7.4L30.4,-6.7L37.5,-12.4L46.8,-20.2L48.5,-21.5L50.3,-19.7L48.1,-17.5Q37.6,-7.4 30.6,0.4L27.7,3.9L26.8,4.8Q26.1,4.5 23.75,2.3ZM21.3,-72.4L20.5,-73.2L21,-74.4L23.3,-73.8Q31.1,-71.2 34.8,-69.5Q37,-68.4 37,-66.5Q37,-63.1 36.8,-61.4Q36.6,-60.3 36,-59.3Q35.4,-58.4 34.5,-58.4Q33.7,-58.4 33.1,-59.3Q29,-65.8 21.3,-72.4Z"></path><path transform="translate(500 100)" d="M57.7,7.5Q56.5,7.5 55.1,6.8L52.8,5.1Q42.6,-3.4 36.4,-15.9L35.7,-17.4L35.5,-17.6Q28.1,-12.7 22.2,-9.9Q14.1,-6.2 8.1,-4L7,-6.1Q22.5,-12.8 33.9,-22Q30.8,-30.1 28.5,-42L10.7,-38.2L4.9,-41.5L5.2,-42.6Q8.7,-42.9 13.05,-43.5Q17.4,-44.1 21.5,-44.7Q23.3,-45 27.9,-45.7L27.5,-49L26,-61.9L25.1,-68.8Q24.1,-74 21.5,-77.8L21.8,-78.3L22.2,-78.8Q23.2,-78.4 27.8,-74.75Q32.4,-71.1 33,-70.2Q32.2,-68.5 32,-66.6Q31.8,-64.7 31.9,-62.2L32.6,-48.5L32.8,-46.5Q39,-47.6 42.5,-48.5Q47.8,-49.9 51.5,-52.1Q54.8,-49.9 56.8,-47.7L57,-47.4Q57.2,-47.1 57.2,-46.6Q57.2,-45.9 56.4,-45.7L55.2,-45.6Q47.9,-45.2 38.1,-43.5L34,-42.8L33.2,-42.6Q34.3,-34.5 37.5,-25.4L38.7,-26.6Q42.4,-30.8 44,-34.5Q45.3,-37.6 44.9,-40.6L44.9,-41.1L45.8,-41.5Q48.7,-38.4 51.7,-33.4L51.4,-32.9L47,-28Q43.6,-24.2 39.3,-20.5Q43.8,-10.7 52.1,-2.2Q53.1,-7.2 53.7,-12.7L54.7,-23.4L56.1,-23.4L56.2,-22.9L56.4,-16.2L57.2,-7.3Q57.7,-2.4 59.5,5.3L59.6,5.9Q59.6,7.5 58.1,7.5L57.7,7.5ZM38.1,-67.4L37.7,-67.7L38.2,-69.1L50.1,-65.1L50.9,-64.7Q52.9,-64.2 52.9,-61.8L52.7,-57.2Q52.5,-56.4 52.1,-55.8Q51.7,-55.1 51,-55.1Q50.4,-55.1 49.8,-55.8L47.8,-58.3Q43.5,-63.4 38.1,-67.4ZM68.6,-19.3L65.4,-21.9Q64.5,-22.6 64.7,-24.1Q65.4,-27.6 65.4,-30L65.4,-49Q65.4,-53.9 64.5,-57.5L63.1,-61.4L62.8,-62.2L63.5,-62.9Q68.2,-59.8 71.7,-56.6Q71.5,-56.1 71.35,-55.6Q71.2,-55.1 71.1,-54.6Q70.7,-52.4 70.7,-51.2Q70.7,-49.1 70.5,-45.1Q70.4,-40.4 70.3,-35.8Q70.2,-31.2 70.2,-26.5L70.3,-19.3L70.3,-18.9L69.4,-18.7L68.6,-19.3ZM68.7,0.1L65.5,-2L66.1,-3.4L67.4,-2.9L78.3,0.6Q78.5,0.7 78.8,0.75Q79.1,0.8 79.4,0.9L79.7,-0.1L79.8,-2.4Q80,-5.4 80,-6.9L79.8,-53Q79.8,-55.5 79.7,-58.05Q79.6,-60.6 79.5,-63.1Q79.3,-65.3 79.3,-66.3Q79,-70.8 76.9,-75.7L75.7,-78L76.3,-78.7Q77.7,-77.9 81.9,-74.2Q86.1,-70.5 87.1,-69.2L87,-68.5Q86.2,-66.5 86,-63.2Q85.6,-57.6 85.6,-55L85.3,-30.3L85.4,-0.2Q85.4,5 82.8,9.2Q82.5,9.7 82.15,10.05Q81.8,10.4 81.2,10.6L80.2,9.9Q75.4,4.9 68.7,0.1Z"></path><path transform="translate(0 200)" d="M20.2,-5.15Q22.1,-6 22.7,-8.25Q23.3,-10.5 23.3,-16.2L23.3,-59.8Q14.7,-59.4 11.7,-58.7Q8.7,-58 7.6,-55.8Q6.5,-53.6 5.6,-47.2L0.9,-46.8Q2.1,-56.3 2.4,-64.1L3.3,-64.9L11.6,-63.8L44.8,-63.8L54.1,-64.7L53.7,-71.2L54.3,-72.2Q57,-72.7 59.3,-73.25Q61.6,-73.8 63.3,-74.2L63.9,-72.9Q63.2,-71.8 62.55,-62.2Q61.9,-52.6 61.5,-38.6Q72.9,-46.4 76.5,-46.4Q83,-46.4 86.6,-43Q90.2,-39.6 90.2,-33.5Q90.2,-31.5 89.5,-24.3Q88.6,-12.6 88.6,-9.8Q88.6,-6.9 89.4,-5.55Q90.2,-4.2 92.1,-4.2L95.6,-4.4L95.8,-4L95,0.3Q88.4,-0 86.1,-0Q82.3,-0 75.8,1.2L76.2,-2.9Q79.1,-3.7 80.4,-5.2Q81.7,-6.7 81.8,-9.4L82.4,-29.2Q82.6,-34.1 80.35,-36.85Q78.1,-39.6 74.1,-39.6Q71.6,-39.6 67.95,-38Q64.3,-36.4 61.4,-34.1L61.1,-9.8Q61.1,-6.7 61.9,-5.45Q62.7,-4.2 64.7,-4.2L68.2,-4.4L68.4,-4L67.5,0.3Q60.6,-0 58.4,-0L48.5,0.2L49.1,-3.9Q52,-4.2 53.15,-5.4Q54.3,-6.6 54.3,-9.4L54.3,-56.9Q51.8,-58.6 47.65,-59.1Q43.5,-59.6 31.9,-59.8Q31.3,-53.8 30.8,-38.6Q30.3,-23.4 30.3,-11.2Q30.3,-7.5 31.6,-5.95Q32.9,-4.4 36,-4.4Q39.1,-4.4 41.5,-4.7L41.8,-4.3L40.9,0.3L26.2,-0Q21.5,-0 12.5,0.4L13.3,-3.9Q18.3,-4.3 20.2,-5.15Z"></path><path transform="translate(99 200)" d="M13.6,-1.55Q8.8,-4.3 6.2,-9.35Q3.6,-14.4 3.6,-20.9Q3.6,-27.6 6.65,-33.5Q9.7,-39.4 14.8,-42.9Q19.9,-46.4 25.7,-46.4Q33,-46.4 36.8,-42.7Q40.6,-39 40.6,-31.9Q40.6,-29 40,-27L38.7,-25.8L11.1,-25.8Q11,-16.1 14.95,-10.85Q18.9,-5.6 26,-5.6Q31.6,-5.6 38.2,-8.7L38.8,-8.5L39.9,-5.6Q36.3,-3 31.95,-0.9Q27.6,1.2 24.6,1.2Q18.4,1.2 13.6,-1.55ZM31.6,-31.1Q32.1,-31.6 32.1,-33.1Q32.1,-37.1 29.95,-39.2Q27.8,-41.3 23.8,-41.3Q19.1,-41.3 15.75,-38.1Q12.4,-34.9 11.5,-29.5L29.6,-30.4Q31.1,-30.6 31.6,-31.1Z"></path><path transform="translate(144 200)" d=""></path><path transform="translate(164 200)" d="M12.8,-6.15Q14.2,-7.7 14.2,-12L14.3,-54Q14.3,-57.2 13.55,-58.3Q12.8,-59.4 10.6,-59.4L7.2,-59.2L7,-59.6L7.7,-64Q8.9,-63.9 12.2,-63.8Q15.5,-63.7 18.8,-63.7L31.4,-64.1Q41.8,-64.1 47.3,-59.5Q52.8,-54.9 52.8,-46.3Q52.8,-40.7 49.55,-35.65Q46.3,-30.6 41,-27.5Q35.7,-24.4 29.9,-24.4L21.5,-24.4L21.3,-14.6Q21.3,-9.8 21.6,-7.75Q21.9,-5.7 22.75,-5.05Q23.6,-4.4 25.7,-4.4Q27.4,-4.4 28.95,-4.5Q30.5,-4.6 31.1,-4.7L31.3,-4.3L30.4,0.3Q29.4,0.2 26.75,0.1Q24.1,-0 21.2,-0Q17.2,-0 11.85,0.3Q6.5,0.6 6.3,0.8L7,-3.8Q11.4,-4.6 12.8,-6.15ZM41.35,-33.7Q44.4,-37.6 44.4,-44.4Q44.4,-52.1 39.85,-55.65Q35.3,-59.2 25.6,-59.2Q23.8,-59.2 23.4,-59Q23,-58.8 22.9,-57.8Q22,-45.1 21.7,-30.3L32.3,-28.8Q38.3,-29.8 41.35,-33.7Z"></path><path transform="translate(219 200)" d="M9.9,-5.55Q10.9,-7.2 10.9,-11.9L10.9,-33.9Q10.9,-37.2 10,-38.6Q9.1,-40 7.1,-40Q6.3,-40 5.75,-39.9Q5.2,-39.8 5,-39.7L4.5,-40.4L4.8,-43.5Q8.6,-44.2 12.85,-45.2Q17.1,-46.2 18.3,-46.5L19,-45.9Q18.8,-45 18.4,-41.75Q18,-38.5 18.1,-35.6L18.5,-35.3Q21.5,-40 25.55,-43Q29.6,-46 32.6,-46Q34,-46 34.75,-45.85Q35.5,-45.7 35.7,-45.6L36,-45.2Q35.8,-43.8 35.15,-39.25Q34.5,-34.7 34.4,-30.9L30.5,-30.6Q30.5,-34.7 29.95,-36.05Q29.4,-37.4 27.8,-37.4Q25.6,-37.4 23.1,-35.55Q20.6,-33.7 18.5,-30.6L17.7,-10.2Q17.7,-6.8 18.7,-5.6Q19.7,-4.4 22.5,-4.4L26.9,-4.6L27,-4.2L26.1,0.2L15.9,-0Q12.2,-0 9.2,0.15Q6.2,0.3 5.4,0.4L5.9,-3.6Q8.9,-3.9 9.9,-5.55Z"></path><path transform="translate(257 200)" d="M12.9,-1.6Q8.5,-4.4 6.05,-9.45Q3.6,-14.5 3.6,-21Q3.6,-28 6.65,-33.85Q9.7,-39.7 15,-43.05Q20.3,-46.4 26.8,-46.4Q32.4,-46.4 36.85,-43.6Q41.3,-40.8 43.75,-35.75Q46.2,-30.7 46.2,-24.2Q46.2,-17.2 43.15,-11.35Q40.1,-5.5 34.8,-2.15Q29.5,1.2 23,1.2Q17.3,1.2 12.9,-1.6ZM34.7,-8.25Q38,-12.8 38,-20.6Q38,-26.5 36.2,-31.15Q34.4,-35.8 31.15,-38.4Q27.9,-41 23.8,-41Q18.2,-41 14.9,-36.4Q11.6,-31.8 11.6,-23.9Q11.6,-18 13.4,-13.4Q15.2,-8.8 18.4,-6.25Q21.6,-3.7 25.8,-3.7Q31.4,-3.7 34.7,-8.25Z"></path><path transform="translate(307 200)" d="M1.5,22.2L1.7,21.4Q6,17.1 7.55,11.8Q9.1,6.5 9.1,-3.8L9.1,-34.8Q9.1,-37.9 8.25,-39.05Q7.4,-40.2 5.1,-40.2Q4.2,-40.2 3.45,-40.1Q2.7,-40 2.4,-39.9L2.8,-43.6Q6.6,-44.1 11.2,-45.1Q15.8,-46.1 17.2,-46.4L17.7,-45.2Q16,-42.3 16,1.4Q16,8.6 12.7,14.5Q9.4,20.4 3.3,24.1L1.5,22.2ZM8.55,-61.6Q7.2,-63 7.2,-65.3Q7.2,-67.8 8.9,-69.5Q10.6,-71.2 13.1,-71.2Q15.2,-71.2 16.6,-69.75Q18,-68.3 18,-66.1Q18,-63.6 16.3,-61.9Q14.6,-60.2 12.1,-60.2Q9.9,-60.2 8.55,-61.6Z"></path><path transform="translate(332 200)" d="M13.6,-1.55Q8.8,-4.3 6.2,-9.35Q3.6,-14.4 3.6,-20.9Q3.6,-27.6 6.65,-33.5Q9.7,-39.4 14.8,-42.9Q19.9,-46.4 25.7,-46.4Q33,-46.4 36.8,-42.7Q40.6,-39 40.6,-31.9Q40.6,-29 40,-27L38.7,-25.8L11.1,-25.8Q11,-16.1 14.95,-10.85Q18.9,-5.6 26,-5.6Q31.6,-5.6 38.2,-8.7L38.8,-8.5L39.9,-5.6Q36.3,-3 31.95,-0.9Q27.6,1.2 24.6,1.2Q18.4,1.2 13.6,-1.55ZM31.6,-31.1Q32.1,-31.6 32.1,-33.1Q32.1,-37.1 29.95,-39.2Q27.8,-41.3 23.8,-41.3Q19.1,-41.3 15.75,-38.1Q12.4,-34.9 11.5,-29.5L29.6,-30.4Q31.1,-30.6 31.6,-31.1Z"></path><path transform="translate(377 200)" d="M9.3,-4.8Q3.6,-10.8 3.6,-20.9Q3.6,-28 6.65,-33.85Q9.7,-39.7 14.95,-43.05Q20.2,-46.4 26.7,-46.4Q29.5,-46.4 32.1,-46Q34.7,-45.6 36.35,-45.15Q38,-44.7 38.4,-44.5L38.7,-43.8Q38.6,-43.3 38.15,-41.45Q37.7,-39.6 37.2,-36.55Q36.7,-33.5 36.6,-30L32.5,-29.7L32.5,-32.8Q32.5,-36.5 30.25,-38.75Q28,-41 24.3,-41Q18.2,-41 14.9,-36.65Q11.6,-32.3 11.6,-24.3Q11.6,-15.6 15.25,-10.55Q18.9,-5.5 25.2,-5.5Q27.7,-5.5 30.2,-6.25Q32.7,-7 34.4,-7.75Q36.1,-8.5 36.5,-8.8L37.1,-8.6L38.2,-5.5Q37.5,-5 35.15,-3.4Q32.8,-1.8 29.75,-0.3Q26.7,1.2 24.5,1.2Q15,1.2 9.3,-4.8Z"></path><path transform="translate(419 200)" d="M11,-1.55Q8.2,-4.3 8.2,-10.9L8.2,-35.5Q8.2,-38.2 7,-39.3Q5.8,-40.4 2.5,-40.5L2.1,-41.1L2.6,-44.1Q5.5,-45.5 8.25,-47.55Q11,-49.6 12.75,-51.15Q14.5,-52.7 15,-53.2L17,-52.4Q16.9,-51.9 16.7,-50Q16.5,-48.1 16.2,-44.9L30.9,-45.2L31.2,-44.9L30.3,-39.6L15.8,-39.9Q15.1,-28.9 15.1,-14.9Q15.1,-9.8 16.85,-7.7Q18.6,-5.6 22.9,-5.6Q24.4,-5.6 25.9,-6Q27.4,-6.4 28.4,-6.85Q29.4,-7.3 29.7,-7.4L30.7,-4.8Q30.1,-4.3 28.15,-2.9Q26.2,-1.5 23.95,-0.15Q21.7,1.2 20.6,1.2Q13.8,1.2 11,-1.55Z"></path><path transform="translate(452 200)" d=""></path><path transform="translate(472 200)" d="M12.6,-6.05Q14.2,-7.8 14.2,-12L14.3,-54Q14.3,-57.2 13.55,-58.3Q12.8,-59.4 10.6,-59.4L7.2,-59.2L7,-59.6L7.7,-64Q9,-63.9 12.95,-63.8Q16.9,-63.7 21.6,-63.7Q41.3,-63.7 49.7,-64.9L50,-64.3Q49.5,-61.8 48.8,-57.5Q48.1,-53.2 47.7,-47.4L42.9,-47L43.1,-51.6Q43.1,-55.1 42.25,-56.45Q41.4,-57.8 38.8,-58.25Q36.2,-58.7 29.7,-58.7Q26.2,-58.7 24.9,-58.5Q23.6,-58.3 23.2,-57.55Q22.8,-56.8 22.7,-54.8L21.9,-33.7L32.2,-33.6Q34.1,-33.6 37.8,-34.05Q41.5,-34.5 42.7,-34.7L43.1,-34.2L41.7,-28.2Q40.4,-28.3 36.85,-28.4Q33.3,-28.5 29.4,-28.5Q25.7,-28.5 21.7,-27.8L21.3,-11.2Q21.3,-7.1 22.2,-5.75Q23.1,-4.4 25.7,-4.4L32.8,-4.7L33,-4.3L32.1,0.4Q30.5,0.3 26.15,0.15Q21.8,-0 17.2,-0Q14.1,-0 10.5,0.5Q6.9,1 5.8,1.2L6.4,-3.4Q11,-4.3 12.6,-6.05Z"></path><path transform="translate(523 200)" d="M12.9,-1.6Q8.5,-4.4 6.05,-9.45Q3.6,-14.5 3.6,-21Q3.6,-28 6.65,-33.85Q9.7,-39.7 15,-43.05Q20.3,-46.4 26.8,-46.4Q32.4,-46.4 36.85,-43.6Q41.3,-40.8 43.75,-35.75Q46.2,-30.7 46.2,-24.2Q46.2,-17.2 43.15,-11.35Q40.1,-5.5 34.8,-2.15Q29.5,1.2 23,1.2Q17.3,1.2 12.9,-1.6ZM34.7,-8.25Q38,-12.8 38,-20.6Q38,-26.5 36.2,-31.15Q34.4,-35.8 31.15,-38.4Q27.9,-41 23.8,-41Q18.2,-41 14.9,-36.4Q11.6,-31.8 11.6,-23.9Q11.6,-18 13.4,-13.4Q15.2,-8.8 18.4,-6.25Q21.6,-3.7 25.8,-3.7Q31.4,-3.7 34.7,-8.25Z"></path><path transform="translate(573 200)" d="M9.9,-5.55Q10.9,-7.2 10.9,-11.9L10.9,-33.9Q10.9,-37.2 10,-38.6Q9.1,-40 7.1,-40Q6.3,-40 5.75,-39.9Q5.2,-39.8 5,-39.7L4.5,-40.4L4.8,-43.5Q8.6,-44.2 12.85,-45.2Q17.1,-46.2 18.3,-46.5L19,-45.9Q18.8,-45 18.4,-41.75Q18,-38.5 18.1,-35.6L18.5,-35.3Q21.5,-40 25.55,-43Q29.6,-46 32.6,-46Q34,-46 34.75,-45.85Q35.5,-45.7 35.7,-45.6L36,-45.2Q35.8,-43.8 35.15,-39.25Q34.5,-34.7 34.4,-30.9L30.5,-30.6Q30.5,-34.7 29.95,-36.05Q29.4,-37.4 27.8,-37.4Q25.6,-37.4 23.1,-35.55Q20.6,-33.7 18.5,-30.6L17.7,-10.2Q17.7,-6.8 18.7,-5.6Q19.7,-4.4 22.5,-4.4L26.9,-4.6L27,-4.2L26.1,0.2L15.9,-0Q12.2,-0 9.2,0.15Q6.2,0.3 5.4,0.4L5.9,-3.6Q8.9,-3.9 9.9,-5.55Z"></path><path transform="translate(611 200)" d=""></path><path transform="translate(631 200)" d="M18.7,-20.35Q13.7,-37.4 8.4,-53.6Q7.5,-56.5 5.3,-57.85Q3.1,-59.2 -0.6,-59.3L-0.7,-59.7L-0.1,-64L11.2,-63.7Q15.6,-63.7 20,-64.15Q24.4,-64.6 25.7,-64.8L26,-64.1L25.6,-60.2Q20.5,-59.8 18.75,-59Q17,-58.2 17,-56.1Q17,-53.7 21.6,-37.15Q26.2,-20.6 29.3,-9.7L29.9,-9.7L44,-48.1L42.2,-53.6Q41.2,-56.5 39.1,-57.8Q37,-59.1 33.2,-59.3L33,-59.7L33.7,-64L45,-63.7Q48.8,-63.7 53.45,-64.15Q58.1,-64.6 59.5,-64.8L59.8,-64.1L59.4,-60.2Q54.2,-59.8 52.45,-59Q50.7,-58.2 50.7,-56Q50.7,-53.9 55.9,-35.2Q61.1,-16.5 63.1,-9.7L63.7,-9.7L64.7,-12.5Q79.9,-53.3 79.9,-56.2Q79.9,-58.1 78.3,-58.9Q76.7,-59.7 73.1,-59.7L68.1,-59.7L67.9,-60.1L68.6,-64.4Q69.9,-64.3 74.2,-64Q78.5,-63.7 82.5,-63.7Q86.1,-63.7 89.1,-63.8Q92.1,-63.9 93.1,-64L92.4,-59.3Q89.4,-59.1 88.2,-58.25Q87,-57.4 86,-54.5L65,-0.5L58.8,1.7Q57.8,-1.8 54.2,-14.4Q50.6,-27 46.3,-40.7L45.7,-40.7L31.5,-0.5L25.1,1.7Q23.7,-3.3 18.7,-20.35Z"></path><path transform="translate(724 200)" d="M13.6,-1.55Q8.8,-4.3 6.2,-9.35Q3.6,-14.4 3.6,-20.9Q3.6,-27.6 6.65,-33.5Q9.7,-39.4 14.8,-42.9Q19.9,-46.4 25.7,-46.4Q33,-46.4 36.8,-42.7Q40.6,-39 40.6,-31.9Q40.6,-29 40,-27L38.7,-25.8L11.1,-25.8Q11,-16.1 14.95,-10.85Q18.9,-5.6 26,-5.6Q31.6,-5.6 38.2,-8.7L38.8,-8.5L39.9,-5.6Q36.3,-3 31.95,-0.9Q27.6,1.2 24.6,1.2Q18.4,1.2 13.6,-1.55ZM31.6,-31.1Q32.1,-31.6 32.1,-33.1Q32.1,-37.1 29.95,-39.2Q27.8,-41.3 23.8,-41.3Q19.1,-41.3 15.75,-38.1Q12.4,-34.9 11.5,-29.5L29.6,-30.4Q31.1,-30.6 31.6,-31.1Z"></path><path transform="translate(769 200)" d="M14.75,0.75Q11.4,0.3 9.4,-0L8.5,-0.8L8.5,-62.6Q8.5,-68 4.8,-68Q4,-68 3.4,-67.9Q2.8,-67.8 2.6,-67.7L2.3,-68L2.7,-71.3Q7,-71.9 11.6,-72.9Q16.2,-73.9 17.5,-74.2L18.1,-72.9Q17.4,-71.9 16.8,-62.75Q16.2,-53.6 15.8,-39.4Q20.3,-42.6 23.55,-44.5Q26.8,-46.4 27.9,-46.4Q33.5,-46.4 37.9,-43.7Q42.3,-41 44.75,-36.15Q47.2,-31.3 47.2,-25Q47.2,-17.8 43.85,-11.8Q40.5,-5.8 34.8,-2.3Q29.1,1.2 22.3,1.2Q18.1,1.2 14.75,0.75ZM35.65,-8.85Q39.5,-13.4 39.5,-21.3Q39.5,-26.3 37.75,-30.5Q36,-34.7 32.95,-37.15Q29.9,-39.6 26.3,-39.6Q24.3,-39.6 21.2,-38.05Q18.1,-36.5 15.6,-34.2L15.3,-6.4Q17.1,-5.5 19.9,-4.9Q22.7,-4.3 25.1,-4.3Q31.8,-4.3 35.65,-8.85Z"></path></svg>